<svg xmlns="http://www.w3.org/2000/svg" viewBox="0 0 1400 900" fill="none">
  <defs>
    <linearGradient id="bg" x1="0" y1="0" x2="1" y2="1">
      <stop offset="0%" stop-color="#dff4f6"/>
      <stop offset="55%" stop-color="#8fd0db"/>
      <stop offset="100%" stop-color="#1f4b5d"/>
    </linearGradient>
    <linearGradient id="sky" x1="0" y1="0" x2="0" y2="1">
      <stop offset="0%" stop-color="#eafcff"/>
      <stop offset="100%" stop-color="#a8d9e2"/>
    </linearGradient>
  </defs>
  <rect width="1400" height="900" rx="34" fill="url(#bg)"/>
  <circle cx="1180" cy="130" r="180" fill="#ffffff" opacity="0.16"/>
  <circle cx="180" cy="760" r="260" fill="#0b1e28" opacity="0.12"/>
  <path d="M0 640C220 560 420 610 620 575c220-38 360-160 780-110v435H0V640Z" fill="#16313f" opacity="0.35"/>
  <path d="M0 690C220 640 420 680 620 645c220-38 360-160 780-110v365H0V690Z" fill="#0f2531" opacity="0.55"/>
  <rect x="150" y="210" width="520" height="330" rx="26" fill="#ffffff" opacity="0.18"/>
  <rect x="168" y="228" width="484" height="294" rx="20" fill="url(#sky)" opacity="0.95"/>
  <rect x="210" y="278" width="320" height="178" rx="12" fill="#2d7bd8"/>
  <rect x="232" y="256" width="52" height="210" rx="10" fill="#1d5ea8"/>
  <rect x="298" y="244" width="52" height="222" rx="10" fill="#1d5ea8"/>
  <rect x="364" y="260" width="52" height="206" rx="10" fill="#1d5ea8"/>
  <rect x="430" y="246" width="52" height="220" rx="10" fill="#1d5ea8"/>
  <rect x="498" y="282" width="52" height="184" rx="10" fill="#1d5ea8"/>
  <rect x="560" y="250" width="32" height="216" rx="10" fill="#1d5ea8"/>
  <rect x="608" y="286" width="20" height="180" rx="8" fill="#1d5ea8"/>
  <rect x="468" y="118" width="78" height="78" rx="18" fill="#ffffff" opacity="0.9"/>
  <path d="M507 134v46M484 157h46" stroke="#2bbcd4" stroke-width="12" stroke-linecap="round"/>
  <circle cx="1020" cy="280" r="190" fill="#ffffff" opacity="0.12"/>
  <circle cx="1040" cy="280" r="110" fill="#ffffff" opacity="0.18"/>
  <path d="M1040 195l20 64 66 2-53 38 18 62-51-36-51 36 18-62-53-38 66-2 20-64Z" fill="#2bbcd4" opacity="0.95"/>
  <rect x="938" y="430" width="280" height="250" rx="28" fill="#ffffff" opacity="0.15"/>
  <rect x="970" y="460" width="216" height="180" rx="18" fill="#eafcff" opacity="0.92"/>
  <circle cx="1078" cy="520" r="48" fill="#2bbcd4" opacity="0.85"/>
  <path d="M1078 492v56M1050 520h56" stroke="#ffffff" stroke-width="10" stroke-linecap="round"/>
  <path d="M1000 640h180" stroke="#7dd3fc" stroke-width="12" stroke-linecap="round" opacity="0.7"/>
  <path d="M1110 655h88" stroke="#7dd3fc" stroke-width="12" stroke-linecap="round" opacity="0.5"/>
</svg>